<svg height="200px" width="200px" version="1.1" id="Layer_1" xmlns="http://www.w3.org/2000/svg" xmlns:xlink="http://www.w3.org/1999/xlink" viewBox="0 0 511.999 511.999" xml:space="preserve" fill="#000000"><g id="SVGRepo_bgCarrier" stroke-width="0"></g><g id="SVGRepo_tracerCarrier" stroke-linecap="round" stroke-linejoin="round"></g><g id="SVGRepo_iconCarrier"> <path style="fill:#FB5858;" d="M432.431,178.615c-23.648-34.6-56.48-61.301-94.944-77.217c-5.648-2.337-12.109-1.7-17.192,1.696 c-5.082,3.398-8.152,9.107-8.152,15.22v38.408c0,6.794,3.782,13.03,9.794,16.196c47.037,24.776,76.268,72.981,76.268,125.805 c0,78.203-63.694,141.826-141.99,141.826c-78.44,0-142.254-63.623-142.254-141.826c0-51.792,28.339-99.546,73.988-124.627 c5.854-3.216,9.474-9.366,9.474-16.044v-38.709c0-6.157-3.077-11.902-8.218-15.288c-5.142-3.387-11.634-3.963-17.29-1.529 C93.249,136.344,42.423,213.357,42.423,298.721c0,117.601,95.756,213.277,213.452,213.277c117.834,0,213.701-95.676,213.701-213.277 C469.576,255.702,456.732,214.169,432.431,178.615z"></path> <path style="fill:#FF835D;" d="M256.213,440.549c-78.44,0-142.254-63.488-142.254-141.691c0-51.792,28.339-99.615,73.988-124.694 c5.854-3.216,9.474-9.434,9.474-16.112v-38.709c0-6.157-3.077-11.902-8.218-15.288s-11.634-3.963-17.29-1.529 c-78.665,33.819-129.49,110.831-129.49,196.196c0,117.601,95.756,213.277,213.452,213.277L256.213,440.549z"></path> <path style="fill:#C34A48;" d="M256.003,254.374c19.003,0,34.172-15.407,34.172-34.41V34.41c0-19.003-15.169-34.41-34.172-34.41 s-34.172,15.405-34.172,34.41v185.554C221.831,238.968,236.999,254.374,256.003,254.374z"></path> <path style="fill:#FB5858;" d="M256.003,254.374V0C237,0,221.831,15.405,221.831,34.41v185.554 C221.831,238.968,236.999,254.374,256.003,254.374z"></path> </g></svg>