<svg fill="#000000" version="1.1" id="Capa_1" xmlns="http://www.w3.org/2000/svg" xmlns:xlink="http://www.w3.org/1999/xlink" width="256px" height="256px" viewBox="0 0 441.484 441.484" xml:space="preserve"><g id="SVGRepo_bgCarrier" stroke-width="0"></g><g id="SVGRepo_tracerCarrier" stroke-linecap="round" stroke-linejoin="round"></g><g id="SVGRepo_iconCarrier"> <g> <g> <path d="M0,134.094v205.543c0,6.903,5.597,12.5,12.5,12.5h112.217v27.229h-20.104c-6.903,0-12.5,5.597-12.5,12.5 s5.597,12.5,12.5,12.5h133.109c6.902,0,12.5-5.597,12.5-12.5s-5.598-12.5-12.5-12.5h-20.104v-27.229h112.217 c6.903,0,12.5-5.597,12.5-12.5V134.094c0-6.904-5.597-12.5-12.5-12.5H12.5C5.596,121.594,0,127.19,0,134.094z M192.619,378.137 h-42.902v-25.999h42.902V378.137L192.619,378.137z M25,146.594h292.336v180.543H205.119h-67.902H25V146.594z"></path> <path d="M441.484,255.161V49.618c0-6.904-5.598-12.5-12.5-12.5H111.648c-6.903,0-12.5,5.596-12.5,12.5v48.247 c0,6.903,5.597,12.5,12.5,12.5c6.903,0,12.5-5.597,12.5-12.5V62.118h292.336v180.543h-37.65c-6.902,0-12.5,5.598-12.5,12.5 c0,6.904,5.598,12.5,12.5,12.5h50.15C435.889,267.661,441.484,262.065,441.484,255.161z"></path> </g> </g> </g></svg>