<?xml version="1.0" encoding="utf-8"?>
<!-- Uploaded to: SVG Repo, www.svgrepo.com, Generator: SVG Repo Mixer Tools -->
<svg fill="#000000" width="800px" height="800px" viewBox="0 0 32 32" version="1.1" xmlns="http://www.w3.org/2000/svg">
<title>alt-bullhorn</title>
<path d="M0 12q0-2.464 1.76-4.224t4.256-1.76l5.984-0.032q0.16 0 0.48 0t1.28-0.16 1.984-0.352 2.336-0.672 2.656-1.056 2.688-1.6 2.592-2.144q1.6 0 3.008 1.6t2.176 4.384 0.8 6.016-0.8 6.016-2.176 4.384-3.008 1.6q-3.904-4-10.112-5.44-0.192 0.64-0.704 1.056t-1.184 0.384h-0.416l-1.6 8q0.832 0 1.408 0.608t0.608 1.408-0.608 1.408-1.408 0.576h-4q-0.832 0-1.408-0.576t-0.576-1.408l1.984-10.016q-0.864 0-1.44-0.608t-0.544-1.376q-2.496 0-4.256-1.76t-1.76-4.256zM4 13.984h2.016v-4h-2.016v4zM22.016 12q0 2.176 0.512 4t1.472 2.912 2.016 1.088 1.984-1.088 1.472-2.912 0.544-4-0.544-4.032-1.472-2.912-1.984-1.056-2.016 1.056-1.472 2.912-0.512 4.032zM24.192 13.984q-0.352-1.984 0-4h1.824q0.8 0 1.408 0.608t0.576 1.408-0.576 1.408-1.408 0.576h-1.824z"></path>
</svg>