<?xml version="1.0" encoding="UTF-8" standalone="no"?>
<!-- Generator: Gravit.io -->

<svg
   style="isolation:isolate"
   viewBox="0 0 512 512"
   width="512pt"
   height="512pt"
   version="1.1"
   id="svg3"
   xmlns="http://www.w3.org/2000/svg"
   xmlns:svg="http://www.w3.org/2000/svg">
  <defs
     id="defs3" />
  <linearGradient
     id="_lgradient_1"
     x1="0"
     y1="0.5"
     x2="1.12901"
     y2="0.50270087"
     gradientTransform="scale(512.00002,503.98935)"
     gradientUnits="userSpaceOnUse">
    <stop
       offset="0%"
       stop-opacity="1"
       style="stop-color:rgb(84,51,255)"
       id="stop1" />
    <stop
       offset="51.73913043478261%"
       stop-opacity="1"
       style="stop-color:rgb(32,189,255)"
       id="stop2" />
    <stop
       offset="98.26086956521739%"
       stop-opacity="1"
       style="stop-color:rgb(165,254,203)"
       id="stop3" />
  </linearGradient>
  <path
     d="m 317.92,224 v 64 l -45.70667,-32 z m 0,-96 -94.13333,94.12267 L 157.92,176 l -32,16 64,64 -64,64 32,16 65.86667,-46.12267 L 317.92,384 l 64,-32 V 160 Z M 200.64,462.08 v 0 c 11.36,3.06133 18.10133,14.77333 15.04,26.13333 v 0 c -3.06133,11.36 -14.77333,18.10134 -26.13333,15.04 v 0 C 135.14667,488.64 87.04,456.42667 52.8,411.73333 18.56,367.04 0,312.32 0,256 0,188.16 26.986667,122.98667 74.986667,74.986667 122.98667,26.986667 188.16,0 256,0 323.84,0 389.01333,26.986667 437.01333,74.986667 485.01333,122.98667 512,188.16 512,256 512,312.10667 493.54667,366.61333 459.62667,411.2 425.6,455.78667 377.92,488 323.84,502.93333 v 0 C 312.48,506.05867 300.72533,499.36 297.6,488 v 0 c -3.12533,-11.36 3.57333,-23.11467 14.93333,-26.24 v 0 c 45.01334,-12.37333 84.8,-39.25333 113.17334,-76.37333 C 453.97333,348.16 469.33333,302.72 469.33333,256 c 0,-56.53333 -22.50666,-110.82667 -62.50666,-150.82667 -40,-39.999997 -94.29334,-62.506663 -150.82667,-62.506663 -56.53333,0 -110.82667,22.506666 -150.82667,62.506663 -39.999997,40 -62.506663,94.29334 -62.506663,150.82667 0,46.93333 15.466666,92.58667 44.053333,129.81333 C 115.2,423.04 155.30667,449.92 200.64,462.08 Z"
     fill-rule="evenodd"
     fill="url(#_lgradient_1)"
     id="path3"
     style="fill:url(#_lgradient_1);stroke-width:10.6667" />
</svg>
