<?xml version="1.0" encoding="utf-8"?><!-- Uploaded to: SVG Repo, www.svgrepo.com, Generator: SVG Repo Mixer Tools -->
<svg width="800px" height="800px" viewBox="0 0 24 24" fill="none" xmlns="http://www.w3.org/2000/svg">
<path d="M18.7071 6.70711C19.0976 6.31658 19.0976 5.68342 18.7071 5.29289C18.3166 4.90237 17.6834 4.90237 17.2929 5.29289L3.29289 19.2929C2.90237 19.6834 2.90237 20.3166 3.29289 20.7071C3.68342 21.0976 4.31658 21.0976 4.70711 20.7071L8.40951 17.0047C8.95325 17.5953 9.63222 18.0474 10.3898 18.3209C10.6288 18.4072 10.883 18.4708 11.3915 18.5979L12.0046 18.7512C12.3447 18.8362 12.5147 18.8787 12.6486 18.8371C12.7648 18.8009 12.8638 18.7236 12.9271 18.6196C13 18.4998 13 18.3246 13 17.974V12.4142L18.7071 6.70711Z" fill="#000000"/>
<path d="M13 6.02606V7.5858L5.76254 14.8233L4.19522 14.5994C3.75538 14.5365 3.36728 14.2788 3.13868 13.8978C2.4378 12.7297 2.4378 11.2704 3.13868 10.1022C3.36728 9.72125 3.75538 9.46355 4.19522 9.40072L6.52621 9.06772C6.82769 9.02465 7.09655 8.85521 7.26548 8.60182L7.63257 8.05118C7.92332 7.61506 8.0687 7.39699 8.23036 7.20094C8.80072 6.50925 9.54657 5.98363 10.3898 5.67914C10.6288 5.59284 10.883 5.52927 11.3915 5.40215L12.0046 5.24888C12.3447 5.16386 12.5147 5.12135 12.6486 5.16301C12.7648 5.19919 12.8638 5.27651 12.9271 5.38048C13 5.50024 13 5.67551 13 6.02606Z" fill="#000000"/>
</svg>