<?xml version="1.0" encoding="utf-8"?><!-- Uploaded to: SVG Repo, www.svgrepo.com, Generator: SVG Repo Mixer Tools -->
<svg width="800px" height="800px" viewBox="0 0 24 24" fill="none" xmlns="http://www.w3.org/2000/svg">
<path d="M3.13868 13.8978C2.4378 12.7296 2.4378 11.2703 3.13868 10.1022C3.36728 9.72119 3.75538 9.46349 4.19522 9.40066L6.52622 9.06766C6.82769 9.02459 7.09655 8.85515 7.26548 8.60176L7.63257 8.05112C7.92332 7.61499 8.0687 7.39693 8.23036 7.20088C8.80072 6.50919 9.54657 5.98357 10.3898 5.67908C10.6288 5.59277 10.8831 5.52921 11.3916 5.40208L12.0046 5.24882C12.3447 5.1638 12.5147 5.12129 12.6486 5.16295C12.7648 5.19912 12.8638 5.27645 12.9271 5.38042C13 5.50017 13 5.67545 13 6.026V17.974C13 18.3245 13 18.4998 12.9271 18.6195C12.8638 18.7235 12.7648 18.8008 12.6486 18.837C12.5147 18.8787 12.3447 18.8361 12.0046 18.7511L11.3916 18.5979C10.8831 18.4707 10.6288 18.4072 10.3898 18.3209C9.54657 18.0164 8.80072 17.4908 8.23036 16.7991C8.0687 16.603 7.92332 16.385 7.63257 15.9488L7.26548 15.3982C7.09655 15.1448 6.82769 14.9754 6.52621 14.9323L4.19522 14.5993C3.75538 14.5365 3.36728 14.2788 3.13868 13.8978Z" fill="#000000"/>
<path fill-rule="evenodd" clip-rule="evenodd" d="M15.0052 7.93411C15.2981 7.64122 15.773 7.64122 16.0659 7.93411C17.1386 9.0069 17.744 10.4602 17.75 11.9773C17.7559 13.4945 17.1621 14.9525 16.0978 16.0337C15.8072 16.3289 15.3323 16.3326 15.0371 16.042C14.742 15.7515 14.7382 15.2766 15.0288 14.9814C15.8154 14.1823 16.2544 13.1046 16.25 11.9832C16.2456 10.8619 15.7981 9.7877 15.0052 8.99477C14.7123 8.70188 14.7123 8.227 15.0052 7.93411Z" fill="#000000"/>
</svg>