<?xml version="1.0" encoding="UTF-8" standalone="no"?>
<!-- Generator: Gravit.io -->

<svg
   style="isolation:isolate"
   viewBox="0 0 48 48"
   width="48"
   height="48"
   version="1.1"
   id="svg8"
   xmlns="http://www.w3.org/2000/svg"
   xmlns:svg="http://www.w3.org/2000/svg">
  <defs
     id="defs8" />
  <linearGradient
     id="_lgradient_2"
     x1="0"
     y1="0.5"
     x2="1"
     y2="0.5"
     gradientTransform="matrix(44,0,0,44,2,2)"
     gradientUnits="userSpaceOnUse">
    <stop
       offset="0%"
       stop-opacity="1"
       style="stop-color:rgb(67,233,123)"
       id="stop1" />
    <stop
       offset="97.82608695652173%"
       stop-opacity="1"
       style="stop-color:rgb(56,249,215)"
       id="stop2" />
  </linearGradient>
  <path
     d="m 38.95,34.02 v 0 c 0.613,-0.916 1.856,-1.16 2.775,-0.545 v 0 c 0.919,0.615 1.163,1.859 0.545,2.775 v 0 C 38.19,42.33 31.33,46 24,46 18.17,46 12.57,43.68 8.44,39.56 4.32,35.43 2,29.83 2,24 2,18.17 4.32,12.57 8.44,8.44 12.57,4.32 18.17,2 24,2 29.83,2 35.43,4.32 39.56,8.44 43.68,12.57 46,18.17 46,24 c 0,0.01 0,0.02 0,0.03 l -0.01,0.51 v 0 c -0.011,1.104 -0.916,1.989 -2.02,1.975 v 0 C 42.866,26.501 41.979,25.594 41.99,24.49 v 0 L 42,23.99 C 42,19.22 40.1,14.64 36.72,11.27 33.35,7.9 28.77,6 24,6 19.23,6 14.65,7.9 11.27,11.27 7.9,14.65 6,19.23 6,24 6,28.77 7.9,33.35 11.27,36.73 14.65,40.1 19.23,42 24,42 c 5.99,0 11.61,-3 14.95,-7.98 z"
     fill="url(#_lgradient_2)"
     id="path2"
     style="fill:url(#_lgradient_2)" />
  <linearGradient
     id="_lgradient_3"
     x1="0"
     y1="0.5"
     x2="1"
     y2="0.5"
     gradientTransform="matrix(22.455,1.966,-0.461,5.891,12.722,26.603)"
     gradientUnits="userSpaceOnUse">
    <stop
       offset="0%"
       stop-opacity="1"
       style="stop-color:rgb(67,233,123)"
       id="stop3" />
    <stop
       offset="97.82608695652173%"
       stop-opacity="1"
       style="stop-color:rgb(56,249,215)"
       id="stop4" />
  </linearGradient>
  <path
     d="m 15.097,31.669 v 0 c -0.687,0.399 -1.553,0.135 -1.933,-0.591 v 0 c -0.381,-0.726 -0.133,-1.639 0.553,-2.039 v 0 c 0.617,-0.357 1.275,-0.641 1.946,-0.843 0.768,-0.234 1.56,-0.405 2.356,-0.516 1.881,-0.257 3.792,-0.3 5.685,-0.114 l 0.207,0.018 c 1.971,0.172 3.922,0.584 5.808,1.221 0.796,0.26 1.567,0.598 2.305,0.994 0.647,0.338 1.26,0.763 1.809,1.262 v 0 c 0.592,0.539 0.658,1.487 0.147,2.115 v 0 c -0.51,0.628 -1.404,0.701 -1.996,0.162 v 0 c -0.372,-0.344 -0.786,-0.631 -1.223,-0.86 -0.611,-0.324 -1.254,-0.601 -1.901,-0.819 -1.683,-0.568 -3.42,-0.931 -5.183,-1.085 0,0 -0.009,-0.001 -0.009,-0.001 l -0.217,-0.019 c 0,0 0,0 0,0 -1.687,-0.158 -3.388,-0.126 -5.067,0.098 -0.662,0.093 -1.309,0.237 -1.951,0.431 -0.466,0.14 -0.918,0.331 -1.336,0.586 z"
     fill="url(#_lgradient_3)"
     id="path4"
     style="fill:url(#_lgradient_3)" />
  <linearGradient
     id="_lgradient_4"
     x1="0"
     y1="0.5"
     x2="1"
     y2="0.5"
     gradientTransform="matrix(26.305,2.303,-0.461,5.891,11.305,20.458)"
     gradientUnits="userSpaceOnUse">
    <stop
       offset="0%"
       stop-opacity="1"
       style="stop-color:rgb(67,233,123)"
       id="stop5" />
    <stop
       offset="97.82608695652173%"
       stop-opacity="1"
       style="stop-color:rgb(56,249,215)"
       id="stop6" />
  </linearGradient>
  <path
     d="m 14.151,25.565 v 0 c -0.797,0.39 -1.814,0.112 -2.269,-0.62 v 0 c -0.455,-0.732 -0.177,-1.643 0.62,-2.032 v 0 c 0.717,-0.349 1.483,-0.623 2.266,-0.816 0.896,-0.222 1.82,-0.382 2.75,-0.481 2.198,-0.229 4.434,-0.244 6.652,-0.03 l 0.243,0.021 c 2.308,0.202 4.597,0.643 6.813,1.309 0.935,0.272 1.842,0.623 2.71,1.03 0.763,0.348 1.485,0.782 2.134,1.29 v 0 c 0.7,0.549 0.79,1.499 0.201,2.12 v 0 c -0.589,0.622 -1.635,0.681 -2.334,0.132 v 0 c -0.44,-0.35 -0.928,-0.643 -1.443,-0.879 -0.719,-0.334 -1.475,-0.621 -2.236,-0.848 -1.977,-0.594 -4.014,-0.983 -6.079,-1.164 0,0 -0.011,-0.001 -0.011,-0.001 l -0.254,-0.022 c 0,0 0,0 0,0 -1.976,-0.183 -3.967,-0.177 -5.929,0.023 -0.773,0.082 -1.529,0.217 -2.277,0.402 -0.544,0.133 -1.07,0.318 -1.557,0.566 z"
     fill="url(#_lgradient_4)"
     id="path6"
     style="fill:url(#_lgradient_4)" />
  <linearGradient
     id="_lgradient_5"
     x1="0"
     y1="0.5"
     x2="1"
     y2="0.5"
     gradientTransform="matrix(29.133,2.55,-0.461,5.891,9.888,14.314)"
     gradientUnits="userSpaceOnUse">
    <stop
       offset="0%"
       stop-opacity="1"
       style="stop-color:rgb(67,233,123)"
       id="stop7" />
    <stop
       offset="97.82608695652173%"
       stop-opacity="1"
       style="stop-color:rgb(56,249,215)"
       id="stop8" />
  </linearGradient>
  <path
     d="m 13.081,19.451 v 0 c -0.879,0.383 -2.007,0.095 -2.517,-0.642 v 0 c -0.51,-0.736 -0.21,-1.645 0.67,-2.028 v 0 c 0.79,-0.342 1.636,-0.609 2.5,-0.795 0.99,-0.214 2.011,-0.365 3.041,-0.456 2.43,-0.209 4.904,-0.203 7.361,0.032 l 0.269,0.024 c 2.556,0.224 5.094,0.687 7.552,1.373 1.037,0.282 2.043,0.641 3.008,1.056 0.847,0.355 1.649,0.797 2.373,1.312 v 0 c 0.778,0.555 0.886,1.507 0.24,2.123 v 0 c -0.647,0.616 -1.804,0.666 -2.583,0.11 v 0 c -0.489,-0.354 -1.032,-0.652 -1.604,-0.893 -0.799,-0.341 -1.638,-0.635 -2.481,-0.869 -2.194,-0.614 -4.452,-1.022 -6.739,-1.222 0,0 -0.012,-0.001 -0.012,-0.001 L 23.877,18.55 c 0,0 0,0 0,0 -2.188,-0.202 -4.391,-0.214 -6.561,-0.033 -0.855,0.076 -1.69,0.204 -2.517,0.382 -0.601,0.128 -1.182,0.308 -1.718,0.552 z"
     fill="url(#_lgradient_5)"
     id="path8"
     style="fill:url(#_lgradient_5)" />
</svg>
