<svg viewBox="0 0 1024 1024" class="icon" version="1.1" xmlns="http://www.w3.org/2000/svg" fill="#000000"><g id="SVGRepo_bgCarrier" stroke-width="0"></g><g id="SVGRepo_tracerCarrier" stroke-linecap="round" stroke-linejoin="round"></g><g id="SVGRepo_iconCarrier"><path d="M853.988 783.582L704.985 634.578c29.249-49.501 46.054-107.229 46.054-168.891 0-183.636-148.866-332.504-332.503-332.504S86.034 282.051 86.034 465.688 234.9 798.19 418.536 798.19c61.662 0 119.39-16.805 168.892-46.055L736.43 901.138c32.462 32.462 85.094 32.462 117.558 0 32.462-32.461 32.462-85.094 0-117.556z m-435.452-21.339c-163.784 0-296.557-132.775-296.557-296.556 0-163.784 132.773-296.557 296.557-296.557 163.782 0 296.556 132.773 296.556 296.557 0 163.781-132.773 296.556-296.556 296.556z m411.939 115.384c-19.476 19.478-51.056 19.478-70.534 0L615.726 733.411a334.417 334.417 0 0 0 70.421-70.379l148.017 151.781c19.478 19.479 15.789 43.336-3.689 62.814z" fill="#E83636"></path></g></svg>