<svg height="200px" width="200px" version="1.1" id="Layer_1" xmlns="http://www.w3.org/2000/svg" xmlns:xlink="http://www.w3.org/1999/xlink" viewBox="0 0 508 508" xml:space="preserve" fill="#000000"><g id="SVGRepo_bgCarrier" stroke-width="0"></g><g id="SVGRepo_tracerCarrier" stroke-linecap="round" stroke-linejoin="round"></g><g id="SVGRepo_iconCarrier"> <circle style="fill:#324A5E;" cx="254" cy="254" r="254"></circle> <path style="fill:#FF7058;" d="M124,121.2c-3.2-0.8-6,2-5.2,5.2c14.4,48,30,81.2,65.6,116.4l106.4,106.4l56-56l-106-106.4 C205.2,151.2,172,135.6,124,121.2z"></path> <g> <path style="fill:#E6E9EE;" d="M401.2,227.6c-67.2,11.6-148.4-29.2-148.4-29.2l94,94l58-58C408,232,405.2,227.2,401.2,227.6z"></path> <path style="fill:#E6E9EE;" d="M226,403.2c-0.8,4,4,6.4,6.8,3.6l58-58l-94-94C196.8,254.8,237.6,336,226,403.2z"></path> </g> <g> <path style="fill:#4CDBC4;" d="M253.2,302.4c-8.8,8.8,17.2,48.8,41.6,74.8c2,2,5.2,2,7.6,0l26.4-26.4c2-2,2-5.6,0-7.6 C302,320,262,294,253.2,302.4z"></path> <path style="fill:#4CDBC4;" d="M300.4,255.2C292,264,318,304,342,330.4c2,2,5.2,2,7.6,0L376,304c2-2,2-5.6,0-7.6 C349.2,272.4,309.2,246.4,300.4,255.2z"></path> </g> <g> <polygon style="fill:#FFD05B;" points="323.2,379.2 351.2,407.2 351.2,379.2 377.2,381.2 376.8,353.2 405.2,353.2 377.2,325.2 "></polygon> <ellipse transform="matrix(-0.7071 -0.7071 0.7071 -0.7071 188.8548 463.2146)" style="fill:#FFD05B;" cx="190.362" cy="192.494" rx="29.6" ry="14"></ellipse> </g> </g></svg>