<svg viewBox="0 0 24 24" fill="none" xmlns="http://www.w3.org/2000/svg"><g id="SVGRepo_bgCarrier" stroke-width="0"></g><g id="SVGRepo_tracerCarrier" stroke-linecap="round" stroke-linejoin="round"></g><g id="SVGRepo_iconCarrier"> <path d="M14.5 5.5V10.5C14.5 10.7937 14.4494 11.0755 14.3563 11.3373L15.85 12.831C16.2625 12.1511 16.5 11.3533 16.5 10.5V5.5C16.5 3.01472 14.4853 1 12 1C9.83144 1 8.02115 2.53393 7.59497 4.57595L9.5 6.48099V5.5C9.5 4.11929 10.6193 3 12 3C13.3807 3 14.5 4.11929 14.5 5.5Z" fill="#0F0F0F"></path> <path d="M12.0543 14.9997L7.5 10.4454V10.5C7.5 12.9853 9.51472 15 12 15C12.0181 15 12.0362 14.9999 12.0543 14.9997Z" fill="#0F0F0F"></path> <path d="M13.8888 16.8342L15.5381 18.4835C14.8149 18.7268 13.9751 18.8968 13 18.9657V22C13 22.5523 12.5523 23 12 23C11.4477 23 11 22.5523 11 22V18.9657C3.54013 18.4382 3.99999 12 3.99999 12C3.99999 12 4.00001 11 5.00001 11C6.00001 11 5.99999 12 5.99999 12C5.99999 12 5.49999 17 12 17C12.7098 17 13.3361 16.9404 13.8888 16.8342Z" fill="#0F0F0F"></path> <path d="M18.9402 15.9212L17.4661 14.4471C18.1215 13.215 18 12 18 12C18 12 18 11 19 11C20 11 20 12 20 12C20 12 20.1459 14.0427 18.9402 15.9212Z" fill="#0F0F0F"></path> <path d="M2.00789 3.42206C1.61737 3.03154 1.61737 2.39838 2.00789 2.00785C2.39841 1.61733 3.03158 1.61733 3.4221 2.00785L22.0004 20.5862C22.391 20.9767 22.391 21.6099 22.0004 22.0004C21.6099 22.3909 20.9767 22.3909 20.5862 22.0004L2.00789 3.42206Z" fill="#0F0F0F"></path> </g></svg>