<svg viewBox="0 -5 66.262 66.262" xmlns="http://www.w3.org/2000/svg" fill="#000000"><g id="SVGRepo_bgCarrier" stroke-width="0"></g><g id="SVGRepo_tracerCarrier" stroke-linecap="round" stroke-linejoin="round"></g><g id="SVGRepo_iconCarrier"> <g id="Group_88" data-name="Group 88" transform="translate(-627.234 -323.728)"> <g id="Group_84" data-name="Group 84"> <g id="Group_81" data-name="Group 81"> <path id="Path_211" data-name="Path 211" d="M670.266,338.395a2,2,0,0,1-1.232-.422,14.144,14.144,0,0,0-17.335,0,2.02,2.02,0,0,1-2.468-3.2,18.185,18.185,0,0,1,22.268,0,2.02,2.02,0,0,1-1.233,3.618Z" fill="#ffc52f"></path> </g> <g id="Group_82" data-name="Group 82"> <path id="Path_212" data-name="Path 212" d="M674.426,332.7a1.99,1.99,0,0,1-1.218-.412,21.168,21.168,0,0,0-25.683,0,2.019,2.019,0,1,1-2.441-3.217,25.2,25.2,0,0,1,30.563,0,2.017,2.017,0,0,1-1.221,3.627Z" fill="#ffc52f"></path> </g> <g id="Group_83" data-name="Group 83"> <path id="Path_213" data-name="Path 213" d="M666.106,344.092a1.994,1.994,0,0,1-1.264-.447,7.238,7.238,0,0,0-8.953,0,2.019,2.019,0,1,1-2.529-3.147,11.168,11.168,0,0,1,14.01,0,2.018,2.018,0,0,1-1.264,3.592Z" fill="#ffc52f"></path> </g> </g> <g id="Group_87" data-name="Group 87"> <g id="Group_86" data-name="Group 86"> <path id="Path_214" data-name="Path 214" d="M637.661,324.045c-.218-.279-.938-.318-1.28-.317s-1.063.038-1.281.317-.866,39.9-.866,40.42c0,1.039,4.292,1.111,4.292,0C638.526,363.945,637.88,324.326,637.661,324.045Z" fill="#dce2e9"></path> <path id="Path_215" data-name="Path 215" d="M685.631,324.045c-.219-.279-.94-.318-1.281-.317s-1.062.038-1.281.317-.865,39.9-.865,40.42c0,1.039,4.292,1.111,4.292,0C686.5,363.945,685.85,324.326,685.631,324.045Z" fill="#dce2e9"></path> <path id="Rectangle_34" data-name="Rectangle 34" d="M3.7,0H56.424a3.7,3.7,0,0,1,3.7,3.7v10.66a3.7,3.7,0,0,1-3.7,3.7H3.7a3.7,3.7,0,0,1-3.7-3.7V3.7A3.7,3.7,0,0,1,3.7,0Z" transform="translate(629.867 361.949)" fill="#5a6271"></path> <g id="Group_85" data-name="Group 85"> <path id="Rectangle_35" data-name="Rectangle 35" d="M3.7,0H62.566a3.7,3.7,0,0,1,3.7,3.7v8.563a3.7,3.7,0,0,1-3.7,3.7H3.7a3.7,3.7,0,0,1-3.7-3.7V3.7A3.7,3.7,0,0,1,3.7,0Z" transform="translate(627.234 359.318)" fill="#dce2e9"></path> <path id="Path_216" data-name="Path 216" d="M689.8,374.395H630.93a3.7,3.7,0,0,1-3.7-3.7v.877a3.7,3.7,0,0,0,3.7,3.7H689.8a3.7,3.7,0,0,0,3.7-3.7V370.7A3.7,3.7,0,0,1,689.8,374.395Z" fill="#bfc8d5"></path> <path id="Path_217" data-name="Path 217" d="M689.8,359.318H630.93a3.7,3.7,0,0,0-3.7,3.7v.877a3.7,3.7,0,0,1,3.7-3.7H689.8a3.7,3.7,0,0,1,3.7,3.7v-.877A3.7,3.7,0,0,0,689.8,359.318Z" fill="#dce2e9" style="mix-blend-mode: screen;isolation: isolate"></path> </g> <path id="Path_218" data-name="Path 218" d="M633.275,364.338a2.021,2.021,0,1,1-2.019-2.02A2.021,2.021,0,0,1,633.275,364.338Z" fill="#ffc52f"></path> <path id="Path_219" data-name="Path 219" d="M633.275,370.338a2.021,2.021,0,1,1-2.019-2.02A2.021,2.021,0,0,1,633.275,370.338Z" fill="#8c93a1"></path> </g> <path id="Path_220" data-name="Path 220" d="M676.427,369.3H644.3a2,2,0,0,1,0-4h32.122a2,2,0,0,1,0,4Z" fill="#8c93a1"></path> </g> </g> </g></svg>