<svg viewBox="0 0 68.969 68.969" xmlns="http://www.w3.org/2000/svg" fill="#000000"><g id="SVGRepo_bgCarrier" stroke-width="0"></g><g id="SVGRepo_tracerCarrier" stroke-linecap="round" stroke-linejoin="round"></g><g id="SVGRepo_iconCarrier"> <g id="Group_52" data-name="Group 52" transform="translate(-365.885 -94.043)"> <g id="Group_44" data-name="Group 44"> <g id="Group_40" data-name="Group 40"> <g id="Group_38" data-name="Group 38"> <path id="Path_106" data-name="Path 106" d="M381.635,142.143a2.4,2.4,0,0,1,2.4,2.4h0a2.4,2.4,0,0,1-2.4,2.4H368.287a2.4,2.4,0,0,1-2.4-2.4h0a2.4,2.4,0,0,1,2.4-2.4Z" fill="#dce2e9"></path> <path id="Path_107" data-name="Path 107" d="M381.635,134.134a2.4,2.4,0,0,1,2.4,2.4h0a2.4,2.4,0,0,1-2.4,2.4H368.287a2.4,2.4,0,0,1-2.4-2.4h0a2.4,2.4,0,0,1,2.4-2.4Z" fill="#dce2e9"></path> <path id="Path_108" data-name="Path 108" d="M381.635,126.124a2.4,2.4,0,0,1,2.4,2.405h0a2.4,2.4,0,0,1-2.4,2.4H368.287a2.4,2.4,0,0,1-2.4-2.4h0a2.4,2.4,0,0,1,2.4-2.405Z" fill="#dce2e9"></path> <path id="Path_109" data-name="Path 109" d="M381.635,118.119a2.4,2.4,0,0,1,2.4,2.4h0a2.4,2.4,0,0,1-2.4,2.4H368.287a2.4,2.4,0,0,1-2.4-2.4h0a2.4,2.4,0,0,1,2.4-2.4Z" fill="#dce2e9"></path> <path id="Path_110" data-name="Path 110" d="M381.635,110.106a2.406,2.406,0,0,1,2.4,2.4h0a2.4,2.4,0,0,1-2.4,2.4H368.287a2.4,2.4,0,0,1-2.4-2.4h0a2.406,2.406,0,0,1,2.4-2.4Z" fill="#dce2e9"></path> </g> <g id="Group_39" data-name="Group 39" style="mix-blend-mode: multiply;isolation: isolate"> <path id="Path_111" data-name="Path 111" d="M371.012,146.947h10.623a2.4,2.4,0,0,0,0-4.8H371.012Z" fill="#dce2e9"></path> <path id="Path_112" data-name="Path 112" d="M371.012,138.94h10.623a2.4,2.4,0,0,0,0-4.806H371.012Z" fill="#dce2e9"></path> <path id="Path_113" data-name="Path 113" d="M371.012,130.929h10.623a2.4,2.4,0,0,0,0-4.805H371.012Z" fill="#dce2e9"></path> <path id="Path_114" data-name="Path 114" d="M371.012,122.923h10.623a2.4,2.4,0,0,0,0-4.8H371.012Z" fill="#dce2e9"></path> <path id="Path_115" data-name="Path 115" d="M371.012,114.911h10.623a2.4,2.4,0,0,0,0-4.805H371.012Z" fill="#dce2e9"></path> </g> </g> <g id="Group_43" data-name="Group 43"> <g id="Group_41" data-name="Group 41"> <path id="Path_116" data-name="Path 116" d="M419.1,114.911a2.4,2.4,0,0,1-2.4-2.4h0a2.4,2.4,0,0,1,2.4-2.4h13.347a2.4,2.4,0,0,1,2.4,2.4h0a2.4,2.4,0,0,1-2.4,2.4Z" fill="#dce2e9"></path> <path id="Path_117" data-name="Path 117" d="M419.1,122.919a2.4,2.4,0,0,1-2.4-2.4h0a2.4,2.4,0,0,1,2.4-2.4h13.347a2.4,2.4,0,0,1,2.4,2.4h0a2.4,2.4,0,0,1-2.4,2.4Z" fill="#dce2e9"></path> <path id="Path_118" data-name="Path 118" d="M419.1,130.929a2.4,2.4,0,0,1-2.4-2.4h0a2.4,2.4,0,0,1,2.4-2.4h13.347a2.4,2.4,0,0,1,2.4,2.4h0a2.4,2.4,0,0,1-2.4,2.4Z" fill="#dce2e9"></path> <path id="Path_119" data-name="Path 119" d="M419.1,138.935a2.4,2.4,0,0,1-2.4-2.4h0a2.4,2.4,0,0,1,2.4-2.4h13.347a2.406,2.406,0,0,1,2.4,2.4h0a2.4,2.4,0,0,1-2.4,2.4Z" fill="#dce2e9"></path> <path id="Path_120" data-name="Path 120" d="M419.1,146.947a2.4,2.4,0,0,1-2.4-2.4h0a2.4,2.4,0,0,1,2.4-2.4h13.347a2.4,2.4,0,0,1,2.4,2.4h0a2.406,2.406,0,0,1-2.4,2.4Z" fill="#dce2e9"></path> </g> <g id="Group_42" data-name="Group 42" style="mix-blend-mode: multiply;isolation: isolate"> <path id="Path_121" data-name="Path 121" d="M429.727,110.106H419.1a2.4,2.4,0,1,0,0,4.805h10.623Z" fill="#dce2e9"></path> <path id="Path_122" data-name="Path 122" d="M429.727,118.114H419.1a2.4,2.4,0,1,0,0,4.805h10.623Z" fill="#dce2e9"></path> <path id="Path_123" data-name="Path 123" d="M429.727,126.124H419.1a2.4,2.4,0,1,0,0,4.805h10.623Z" fill="#dce2e9"></path> <path id="Path_124" data-name="Path 124" d="M429.727,134.13H419.1a2.4,2.4,0,1,0,0,4.8h10.623Z" fill="#dce2e9"></path> <path id="Path_125" data-name="Path 125" d="M429.727,142.143H419.1a2.4,2.4,0,1,0,0,4.8h10.623Z" fill="#dce2e9"></path> </g> </g> </g> <g id="Group_51" data-name="Group 51"> <g id="Group_47" data-name="Group 47"> <g id="Group_45" data-name="Group 45"> <path id="Path_126" data-name="Path 126" d="M386.753,109.792a2.4,2.4,0,0,1-2.4,2.4h0a2.4,2.4,0,0,1-2.4-2.4V96.445a2.4,2.4,0,0,1,2.4-2.4h0a2.4,2.4,0,0,1,2.4,2.4Z" fill="#dce2e9"></path> <path id="Path_127" data-name="Path 127" d="M394.762,109.792a2.4,2.4,0,0,1-2.4,2.4h0a2.4,2.4,0,0,1-2.4-2.4V96.445a2.4,2.4,0,0,1,2.4-2.4h0a2.4,2.4,0,0,1,2.4,2.4Z" fill="#dce2e9"></path> <path id="Path_128" data-name="Path 128" d="M402.772,109.792a2.4,2.4,0,0,1-2.406,2.4h0a2.4,2.4,0,0,1-2.4-2.4V96.445a2.4,2.4,0,0,1,2.4-2.4h0a2.4,2.4,0,0,1,2.406,2.4Z" fill="#dce2e9"></path> <path id="Path_129" data-name="Path 129" d="M410.777,109.792a2.4,2.4,0,0,1-2.4,2.4h0a2.4,2.4,0,0,1-2.4-2.4V96.445a2.4,2.4,0,0,1,2.4-2.4h0a2.4,2.4,0,0,1,2.4,2.4Z" fill="#dce2e9"></path> <path id="Path_130" data-name="Path 130" d="M418.789,109.792a2.4,2.4,0,0,1-2.4,2.4h0a2.4,2.4,0,0,1-2.4-2.4V96.445a2.4,2.4,0,0,1,2.4-2.4h0a2.4,2.4,0,0,1,2.4,2.4Z" fill="#dce2e9"></path> </g> <g id="Group_46" data-name="Group 46" style="mix-blend-mode: multiply;isolation: isolate"> <path id="Path_131" data-name="Path 131" d="M381.949,99.169v10.623a2.4,2.4,0,1,0,4.8,0V99.169Z" fill="#dce2e9"></path> <path id="Path_132" data-name="Path 132" d="M389.957,99.169v10.623a2.4,2.4,0,0,0,4.8,0V99.169Z" fill="#dce2e9"></path> <path id="Path_133" data-name="Path 133" d="M397.967,99.169v10.623a2.4,2.4,0,0,0,4.8,0V99.169Z" fill="#dce2e9"></path> <path id="Path_134" data-name="Path 134" d="M405.973,99.169v10.623a2.4,2.4,0,0,0,4.8,0V99.169Z" fill="#dce2e9"></path> <path id="Path_135" data-name="Path 135" d="M413.985,99.169v10.623a2.4,2.4,0,0,0,4.8,0V99.169Z" fill="#dce2e9"></path> </g> </g> <g id="Group_50" data-name="Group 50"> <g id="Group_48" data-name="Group 48"> <path id="Path_136" data-name="Path 136" d="M413.985,147.261a2.4,2.4,0,0,1,2.4-2.4h0a2.4,2.4,0,0,1,2.4,2.4v13.348a2.4,2.4,0,0,1-2.4,2.4h0a2.4,2.4,0,0,1-2.4-2.4Z" fill="#dce2e9"></path> <path id="Path_137" data-name="Path 137" d="M405.977,147.261a2.4,2.4,0,0,1,2.4-2.4h0a2.4,2.4,0,0,1,2.4,2.4v13.348a2.4,2.4,0,0,1-2.4,2.4h0a2.4,2.4,0,0,1-2.4-2.4Z" fill="#dce2e9"></path> <path id="Path_138" data-name="Path 138" d="M397.967,147.261a2.4,2.4,0,0,1,2.4-2.4h0a2.4,2.4,0,0,1,2.4,2.4v13.348a2.4,2.4,0,0,1-2.4,2.4h0a2.4,2.4,0,0,1-2.4-2.4Z" fill="#dce2e9"></path> <path id="Path_139" data-name="Path 139" d="M389.961,147.261a2.4,2.4,0,0,1,2.4-2.4h0a2.406,2.406,0,0,1,2.4,2.4v13.348a2.406,2.406,0,0,1-2.4,2.4h0a2.4,2.4,0,0,1-2.4-2.4Z" fill="#dce2e9"></path> <path id="Path_140" data-name="Path 140" d="M381.949,147.261a2.4,2.4,0,0,1,2.4-2.4h0a2.4,2.4,0,0,1,2.4,2.4v13.348a2.4,2.4,0,0,1-2.4,2.4h0a2.4,2.4,0,0,1-2.4-2.4Z" fill="#dce2e9"></path> </g> <g id="Group_49" data-name="Group 49" style="mix-blend-mode: multiply;isolation: isolate"> <path id="Path_141" data-name="Path 141" d="M418.789,157.884V147.261a2.4,2.4,0,0,0-4.8,0v10.623Z" fill="#dce2e9"></path> <path id="Path_142" data-name="Path 142" d="M410.781,157.884V147.261a2.4,2.4,0,1,0-4.8,0v10.623Z" fill="#dce2e9"></path> <path id="Path_143" data-name="Path 143" d="M402.772,157.884V147.261a2.4,2.4,0,0,0-4.8,0v10.623Z" fill="#dce2e9"></path> <path id="Path_144" data-name="Path 144" d="M394.766,157.884V147.261a2.4,2.4,0,0,0-4.8,0v10.623Z" fill="#dce2e9"></path> <path id="Path_145" data-name="Path 145" d="M386.753,157.884V147.261a2.4,2.4,0,1,0-4.8,0v10.623Z" fill="#dce2e9"></path> </g> </g> </g> <path id="Rectangle_24" data-name="Rectangle 24" d="M7.618,0H47.512a7.62,7.62,0,0,1,7.62,7.62V47.511a7.62,7.62,0,0,1-7.62,7.62H7.619A7.619,7.619,0,0,1,0,47.512V7.618A7.618,7.618,0,0,1,7.618,0Z" transform="translate(372.796 100.966)" fill="#dce2e9"></path> <path id="Rectangle_25" data-name="Rectangle 25" d="M6.349,0H38.732A6.348,6.348,0,0,1,45.08,6.348v32.38a6.35,6.35,0,0,1-6.35,6.35H6.349A6.349,6.349,0,0,1,0,38.729V6.349A6.349,6.349,0,0,1,6.349,0Z" transform="translate(377.82 105.993)" fill="#dce2e9" style="mix-blend-mode: screen;isolation: isolate"></path> <path id="Rectangle_26" data-name="Rectangle 26" d="M5.079,0H37.46a5.079,5.079,0,0,1,5.079,5.079V37.461a5.079,5.079,0,0,1-5.079,5.079H5.08A5.08,5.08,0,0,1,0,37.459V5.079A5.079,5.079,0,0,1,5.079,0Z" transform="translate(379.092 107.262)" fill="#8c93a1"></path> <path id="Path_146" data-name="Path 146" d="M400.362,129.926a31.37,31.37,0,0,0,27.566-16.382v-4.959a7.619,7.619,0,0,0-7.619-7.619H380.416a7.617,7.617,0,0,0-7.62,7.619v4.959A31.368,31.368,0,0,0,400.362,129.926Z" fill="#dce2e9" opacity="0.5" style="mix-blend-mode: screen;isolation: isolate"></path> <rect id="Rectangle_27" data-name="Rectangle 27" width="22.858" height="22.857" rx="2.54" transform="translate(388.932 117.104)" fill="#dce2e9"></rect> <path id="Rectangle_28" data-name="Rectangle 28" d="M2.117,0H16.932a2.116,2.116,0,0,1,2.116,2.116V16.931a2.117,2.117,0,0,1-2.117,2.117H2.115A2.115,2.115,0,0,1,0,16.933V2.117A2.117,2.117,0,0,1,2.117,0Z" transform="translate(390.837 119.008)" fill="#ffc52f"></path> <path id="Path_147" data-name="Path 147" d="M407.77,119.008H392.953a2.116,2.116,0,0,0-2.116,2.116v7.325a31.445,31.445,0,0,0,19.048,0v-7.325A2.116,2.116,0,0,0,407.77,119.008Z" fill="#ffc52f" opacity="0.8" style="mix-blend-mode: screen;isolation: isolate"></path> </g> </g></svg>