<svg viewBox="0 -2.71 68.756 68.756" xmlns="http://www.w3.org/2000/svg" fill="#000000"><g id="SVGRepo_bgCarrier" stroke-width="0"></g><g id="SVGRepo_tracerCarrier" stroke-linecap="round" stroke-linejoin="round"></g><g id="SVGRepo_iconCarrier"> <g id="Group_33" data-name="Group 33" transform="translate(-365.987 -316.656)"> <rect id="Rectangle_20" data-name="Rectangle 20" width="17.19" height="13.751" transform="translate(391.771 362.206)" fill="#dce2e9"></rect> <rect id="Rectangle_21" data-name="Rectangle 21" width="68.756" height="51.565" rx="3.438" transform="translate(365.987 316.656)" fill="#dce2e9"></rect> <path id="Path_78" data-name="Path 78" d="M431.3,367.363H369.426a3.438,3.438,0,0,1-3.439-3.437v.859a3.438,3.438,0,0,0,3.439,3.437H431.3a3.438,3.438,0,0,0,3.438-3.437v-.859A3.438,3.438,0,0,1,431.3,367.363Z" fill="#bfc8d5"></path> <path id="Rectangle_22" data-name="Rectangle 22" d="M1.719,0H61.881A1.718,1.718,0,0,1,63.6,1.718V36.955a1.719,1.719,0,0,1-1.719,1.719H1.719A1.719,1.719,0,0,1,0,36.955V1.719A1.719,1.719,0,0,1,1.719,0Z" transform="translate(368.566 319.234)" fill="#5a6271"></path> <path id="Path_79" data-name="Path 79" d="M402.944,362.206a2.579,2.579,0,1,1-2.58-2.578A2.579,2.579,0,0,1,402.944,362.206Z" fill="#8c93a1"></path> <path id="Path_80" data-name="Path 80" d="M413.2,378.307c-4.131,0-4.263-3.223-4.263-3.223H391.79s-.131,3.223-4.261,3.223c-.448,0-.411,1.683,0,1.683H413.2C413.612,379.99,413.65,378.307,413.2,378.307Z" fill="#bfc8d5"></path> <path id="Path_81" data-name="Path 81" d="M369.207,357.518l62.316-37.893a1.7,1.7,0,0,0-1.077-.391H370.284a1.719,1.719,0,0,0-1.718,1.719V356.19A1.707,1.707,0,0,0,369.207,357.518Z" fill="#8c93a1" opacity="0.5"></path> </g> </g></svg>